# xmcd
#
# Track frame offsets:
#	150
#	15502
#	30459
#	44963
#	66510
#	86006
#	102280
#	124929
#	148272
#	167062
#	181785
#	198817
#
# Disc length: 2939 seconds
#
# Revision: 2
# Processed by: cddbd v1.5.2PL0 Copyright (c) Steve Scherf et al.
# Submitted via: audiograbber 1.83.01
#
DISCID=a80b790c
DTITLE=Reinhard Fendrich - Alles, was du willst [CD2)
DYEAR=1900
DGENRE=Austropop
TTITLE0=Es ist ein Lachen auf der Welt
TTITLE1=Das Gleichgewicht
TTITLE2=Wenn die Uhr tickt
TTITLE3=Die Nacht
TTITLE4=Fluch der Zeit
TTITLE5=Nix is Fix
TTITLE6=Von Zeit zu Zeit
TTITLE7=Wie Tag und Nacht
TTITLE8=Zeitgeisterfahrer
TTITLE9=Tote Dichter
TTITLE10=Der Regen
TTITLE11=Tränen trocknen schnell
EXTD=
EXTT0=
EXTT1=
EXTT2=
EXTT3=
EXTT4=
EXTT5=
EXTT6=
EXTT7=
EXTT8=
EXTT9=
EXTT10=
EXTT11=
PLAYORDER=
